<svg xmlns="http://www.w3.org/2000/svg" viewBox="0 0 459 136" width="459" height="136" role="img" aria-label="pixcel" shape-rendering="crispEdges"><rect x="-0.5" y="33.5" width="18" height="18" fill="#202124"></rect><rect x="16.5" y="33.5" width="18" height="18" fill="#202124"></rect><rect x="33.5" y="33.5" width="18" height="18" fill="#202124"></rect><rect x="50.5" y="33.5" width="18" height="18" fill="#202124"></rect><rect x="67.5" y="33.5" width="18" height="18" fill="#202124"></rect><rect x="-0.5" y="50.5" width="18" height="18" fill="#202124"></rect><rect x="67.5" y="50.5" width="18" height="18" fill="#202124"></rect><rect x="-0.5" y="67.5" width="18" height="18" fill="#202124"></rect><rect x="67.5" y="67.5" width="18" height="18" fill="#202124"></rect><rect x="-0.5" y="84.5" width="18" height="18" fill="#202124"></rect><rect x="16.5" y="84.5" width="18" height="18" fill="#202124"></rect><rect x="33.5" y="84.5" width="18" height="18" fill="#202124"></rect><rect x="50.5" y="84.5" width="18" height="18" fill="#202124"></rect><rect x="67.5" y="84.5" width="18" height="18" fill="#202124"></rect><rect x="-0.5" y="101.5" width="18" height="18" fill="#202124"></rect><rect x="-0.5" y="118.5" width="18" height="18" fill="#202124"></rect><rect x="101.5" y="-0.5" width="18" height="18" fill="#202124"></rect><rect x="101.5" y="50.5" width="18" height="18" fill="#202124"></rect><rect x="101.5" y="67.5" width="18" height="18" fill="#202124"></rect><rect x="101.5" y="84.5" width="18" height="18" fill="#202124"></rect><rect x="101.5" y="101.5" width="18" height="18" fill="#202124"></rect><rect x="135.5" y="33.5" width="18" height="18" fill="#202124"></rect><rect x="203.5" y="33.5" width="18" height="18" fill="#202124"></rect><rect x="152.5" y="50.5" width="18" height="18" fill="#202124"></rect><rect x="186.5" y="50.5" width="18" height="18" fill="#202124"></rect><rect x="169.5" y="67.5" width="18" height="18" fill="#202124"></rect><rect x="152.5" y="84.5" width="18" height="18" fill="#202124"></rect><rect x="186.5" y="84.5" width="18" height="18" fill="#202124"></rect><rect x="135.5" y="101.5" width="18" height="18" fill="#202124"></rect><rect x="203.5" y="101.5" width="18" height="18" fill="#202124"></rect><rect x="237.5" y="33.5" width="18" height="18" fill="#202124"></rect><rect x="254.5" y="33.5" width="18" height="18" fill="#202124"></rect><rect x="271.5" y="33.5" width="18" height="18" fill="#202124"></rect><rect x="288.5" y="33.5" width="18" height="18" fill="#202124"></rect><rect x="305.5" y="33.5" width="18" height="18" fill="#202124"></rect><rect x="237.5" y="50.5" width="18" height="18" fill="#202124"></rect><rect x="237.5" y="67.5" width="18" height="18" fill="#202124"></rect><rect x="237.5" y="84.5" width="18" height="18" fill="#202124"></rect><rect x="237.5" y="101.5" width="18" height="18" fill="#202124"></rect><rect x="254.5" y="101.5" width="18" height="18" fill="#202124"></rect><rect x="271.5" y="101.5" width="18" height="18" fill="#202124"></rect><rect x="288.5" y="101.5" width="18" height="18" fill="#202124"></rect><rect x="305.5" y="101.5" width="18" height="18" fill="#202124"></rect><rect x="339.5" y="33.5" width="18" height="18" fill="#202124"></rect><rect x="356.5" y="33.5" width="18" height="18" fill="#202124"></rect><rect x="373.5" y="33.5" width="18" height="18" fill="#202124"></rect><rect x="390.5" y="33.5" width="18" height="18" fill="#202124"></rect><rect x="407.5" y="33.5" width="18" height="18" fill="#202124"></rect><rect x="339.5" y="50.5" width="18" height="18" fill="#202124"></rect><rect x="407.5" y="50.5" width="18" height="18" fill="#202124"></rect><rect x="339.5" y="67.5" width="18" height="18" fill="#202124"></rect><rect x="356.5" y="67.5" width="18" height="18" fill="#202124"></rect><rect x="373.5" y="67.5" width="18" height="18" fill="#202124"></rect><rect x="390.5" y="67.5" width="18" height="18" fill="#202124"></rect><rect x="407.5" y="67.5" width="18" height="18" fill="#202124"></rect><rect x="339.5" y="84.5" width="18" height="18" fill="#202124"></rect><rect x="339.5" y="101.5" width="18" height="18" fill="#202124"></rect><rect x="356.5" y="101.5" width="18" height="18" fill="#202124"></rect><rect x="373.5" y="101.5" width="18" height="18" fill="#202124"></rect><rect x="390.5" y="101.5" width="18" height="18" fill="#202124"></rect><rect x="407.5" y="101.5" width="18" height="18" fill="#202124"></rect><rect x="441.5" y="-0.5" width="18" height="18" fill="#202124"></rect><rect x="441.5" y="16.5" width="18" height="18" fill="#202124"></rect><rect x="441.5" y="33.5" width="18" height="18" fill="#202124"></rect><rect x="441.5" y="50.5" width="18" height="18" fill="#202124"></rect><rect x="441.5" y="67.5" width="18" height="18" fill="#202124"></rect><rect x="441.5" y="84.5" width="18" height="18" fill="#202124"></rect><rect x="441.5" y="101.5" width="18" height="18" fill="#202124"></rect></svg>